<svg xmlns="http://www.w3.org/2000/svg" viewBox="0 0 16.085 13.404">
  <path id="icon-envelope" class="st0" d="M32.681,136.276H17.936a.67.67,0,0,0-.67.67V149.01a.669.669,0,0,0,.67.67H32.681a.67.67,0,0,0,.67-.67V136.946A.67.67,0,0,0,32.681,136.276Zm-9.915,8.852L21.09,146.8a.67.67,0,0,1-.947-.948l1.676-1.676Zm7.708,1.676a.671.671,0,0,1-.948,0l-1.676-1.676.948-.948,1.676,1.676A.67.67,0,0,1,30.474,146.8Zm0-6.7-4.692,4.692a.671.671,0,0,1-.948,0L20.142,140.1a.67.67,0,1,1,.948-.948l4.218,4.218,4.218-4.218a.67.67,0,1,1,.948.948Z" transform="translate(-17.266 -136.276)"></path>
</svg>